<svg width="322" height="420" viewBox="0 0 322 420" fill="none" xmlns="http://www.w3.org/2000/svg">
<path d="M169.884 79.2576H299.985C311.961 79.2576 321.668 88.9504 321.668 100.907V397.505C321.668 409.462 311.961 419.155 299.985 419.155H191.567C179.593 419.155 169.884 409.462 169.884 397.505V79.2576Z" fill="#1FAAAA"/>
<path d="M0 21.6495C0 9.69282 9.70804 0 21.6835 0H148.511C160.487 0 170.195 9.69281 170.195 21.6495V339.856H21.6835C9.70805 339.856 0 330.163 0 318.206V21.6495Z" fill="#FF5D3A"/>
<path d="M212.743 128.214H90.2035V165.598H212.743V128.214Z" fill="white"/>
<path d="M253.59 209.779H49.3567V247.163H253.59V209.779Z" fill="white"/>
<path d="M132.269 79.0207L132.269 418.918H170.216L170.216 79.0207H132.269Z" fill="white"/>
</svg>
