<svg width="40" height="55" viewBox="0 0 40 55" fill="none" xmlns="http://www.w3.org/2000/svg">
<path d="M20 5L30.8 7.86624C32.3419 7.86624 38 13.7295 38 15.3125L36.751 33.125C32.8571 37.8125 30.2857 41.0937 26.6857 44.375L22.7919 50C21.2502 50 20 48.7167 20 47.1338V5Z" fill="#1FAAAA"/>
<path d="M2.97297 17.7458C2.97297 15.9928 6.88661 8.81472 8.32434 8.81472L17.081 5.05417C18.5189 5.05417 20 4.5951 20 6.34805V53L12.2162 42.1887C10.7785 42.1887 2 25.1394 2 23.3865L2.97297 17.7458Z" fill="#FF5D3A"/>
<path d="M26 18H14V22H26V18Z" fill="white"/>
<path d="M30 27H10V31H30V27Z" fill="white"/>
<path d="M18 13V50H22V13H18Z" fill="white"/>
<path d="M20 53C19.8039 53 19.6172 52.921 19.4883 52.7834C18.7331 51.9769 1 32.9083 1 22.6842C1 12.9333 9.52353 5 20 5C30.4765 5 39 12.9333 39 22.6842C39 32.9083 21.2669 51.9769 20.5117 52.7834C20.3828 52.921 20.1961 53 20 53ZM20 6.26316C10.272 6.26316 2.35714 13.6293 2.35714 22.6842C2.35714 31.5024 17.0483 48.1419 20 51.3952C22.9517 48.1419 37.6428 31.5024 37.6428 22.6842C37.6428 13.6293 29.728 6.26316 20 6.26316Z" fill="#EAD6C7" stroke="#333333" stroke-width="2"/>
</svg>
